<svg fill="none" height="238" viewBox="0 -30 238 238" width="238" xmlns="http://www.w3.org/2000/svg">
  <g transform="translate(0 18)">
  <path d="M15 -2.8H65.5A10 10 0 0 1 73 0.6L96.24 27H193A10 10 0 0 1 203 37V135H5V7.2A10 10 0 0 1 15 -2.8Z" fill="#000" />

  <g stroke="#fff" stroke-linecap="butt" stroke-linejoin="round" stroke-width="10">
    <path d="M5 135V7.2A10 10 0 0 1 15 -2.8H65.5A10 10 0 0 1 73 0.6L96.24 27H193A10 10 0 0 1 203 37V135" />
  </g>

  <g transform="translate(0 22)">
    <g fill="#fff">
      <path d="M10 113C10 115.761 12.2386 118 15 118H193C195.761 118 198 115.761 198 113H208C208 121.284 201.284 128 193 128H15C6.71573 128 0 121.284 0 113Z"/>
      <path d="m30 98v-68h20l20 25 20-25h20v68h-20v-39l-20 25-20-25v39zm125 0-30-33h20v-35h20v35h20z"/>
    </g>
  </g>
  <g transform="translate(0 22)">
    <g transform="matrix(1 0 -0.227757 0.85 29.153 19.2)">
      <rect fill="#000" height="108" rx="5" width="188" x="10" y="10"/>
      <path clip-rule="evenodd" d="m15 10c-2.7614 0-5 2.2386-5 5v98c0 2.761 2.2386 5 5 5h178c2.761 0 5-2.239 5-5v-98c0-2.7614-2.239-5-5-5zm-15 5c0-8.28427 6.71573-15 15-15h178c8.284 0 15 6.71573 15 15v98c0 8.284-6.716 15-15 15h-178c-8.28427 0-15-6.716-15-15z" fill="#fff" fill-rule="evenodd"/>
      <path d="m30 98v-68h20l20 25 20-25h20v68h-20v-39l-20 25-20-25v39zm125 0-30-33h20v-35h20v35h20z" fill="#fff"/>
    </g>
  </g>
  </g>
</svg>
